<svg width="52" height="48" viewBox="0 0 52 48" fill="none" xmlns="http://www.w3.org/2000/svg">
<mask id="path-1-outside-1_335_712" maskUnits="userSpaceOnUse" x="1" y="0" width="51" height="49" fill="black">
<rect fill="white" x="1" width="51" height="49"/>
<path d="M3.152 48L19.088 1.28H33.936L50.32 48H40.976L27.088 7.488L30.352 8.896H22.352L25.68 7.488L12.24 48H3.152ZM14.288 35.584L17.168 27.904H36.112L38.928 35.584H14.288Z"/>
</mask>
<path d="M3.152 48L2.20554 47.6772L1.75433 49H3.152V48ZM19.088 1.28V0.279999H18.3725L18.1415 0.957166L19.088 1.28ZM33.936 1.28L34.8797 0.949073L34.645 0.279999H33.936V1.28ZM50.32 48V49H51.7304L51.2637 47.6691L50.32 48ZM40.976 48L40.03 48.3243L40.2617 49H40.976V48ZM27.088 7.488L27.4841 6.56979L25.4093 5.67477L26.142 7.81228L27.088 7.488ZM30.352 8.896V9.896L30.7481 7.97779L30.352 8.896ZM22.352 8.896L21.9624 7.97503L22.352 9.896V8.896ZM25.68 7.488L26.6291 7.80288L27.3247 5.70637L25.2904 6.56703L25.68 7.488ZM12.24 48V49H12.9618L13.1891 48.3149L12.24 48ZM14.288 35.584L13.3517 35.2329L12.845 36.584H14.288V35.584ZM17.168 27.904V26.904H16.475L16.2317 27.5529L17.168 27.904ZM36.112 27.904L37.0509 27.5597L36.8104 26.904H36.112V27.904ZM38.928 35.584V36.584H40.3598L39.8669 35.2397L38.928 35.584ZM4.09846 48.3228L20.0345 1.60283L18.1415 0.957166L2.20554 47.6772L4.09846 48.3228ZM19.088 2.28H33.936V0.279999H19.088V2.28ZM32.9923 1.61092L49.3763 48.3309L51.2637 47.6691L34.8797 0.949073L32.9923 1.61092ZM50.32 47H40.976V49H50.32V47ZM41.922 47.6757L28.034 7.16371L26.142 7.81228L40.03 48.3243L41.922 47.6757ZM26.6919 8.40621L29.9559 9.81421L30.7481 7.97779L27.4841 6.56979L26.6919 8.40621ZM30.352 7.896H22.352V9.896H30.352V7.896ZM22.7416 9.81697L26.0696 8.40897L25.2904 6.56703L21.9624 7.97503L22.7416 9.81697ZM24.7309 7.17312L11.2909 47.6851L13.1891 48.3149L26.6291 7.80288L24.7309 7.17312ZM12.24 47H3.152V49H12.24V47ZM15.2243 35.9351L18.1043 28.2551L16.2317 27.5529L13.3517 35.2329L15.2243 35.9351ZM17.168 28.904H36.112V26.904H17.168V28.904ZM35.1731 28.2483L37.9891 35.9283L39.8669 35.2397L37.0509 27.5597L35.1731 28.2483ZM38.928 34.584H14.288V36.584H38.928V34.584Z" fill="#55B76B" mask="url(#path-1-outside-1_335_712)"/>
<path d="M1.152 47L17.088 0.279999H31.936L48.32 47H38.976L25.088 6.488L28.352 7.896H20.352L23.68 6.488L10.24 47H1.152ZM12.288 34.584L15.168 26.904H34.112L36.928 34.584H12.288Z" fill="#242424"/>
</svg>
